<svg xmlns="http://www.w3.org/2000/svg" viewBox="0 0 256 256" role="img" aria-label="智控云影">
  <defs>
    <linearGradient id="bg" x1="42" y1="30" x2="218" y2="226" gradientUnits="userSpaceOnUse">
      <stop offset="0" stop-color="#18c8ff"/>
      <stop offset="0.48" stop-color="#2563eb"/>
      <stop offset="1" stop-color="#7c3aed"/>
    </linearGradient>
    <linearGradient id="cloud" x1="62" y1="86" x2="194" y2="171" gradientUnits="userSpaceOnUse">
      <stop offset="0" stop-color="#ffffff"/>
      <stop offset="1" stop-color="#dbeafe"/>
    </linearGradient>
    <linearGradient id="play" x1="111" y1="94" x2="169" y2="146" gradientUnits="userSpaceOnUse">
      <stop offset="0" stop-color="#38bdf8"/>
      <stop offset="1" stop-color="#6366f1"/>
    </linearGradient>
    <filter id="shadow" x="28" y="38" width="200" height="170" color-interpolation-filters="sRGB" filterUnits="userSpaceOnUse">
      <feDropShadow dx="0" dy="10" stdDeviation="10" flood-color="#0f172a" flood-opacity="0.22"/>
    </filter>
  </defs>
  <rect width="256" height="256" rx="56" fill="url(#bg)"/>
  <path d="M56 172c-23 0-41-18-41-40 0-21 16-38 36-40 9-24 32-41 59-41 29 0 54 20 61 47 22 3 39 21 39 43 0 24-20 43-45 43H56z" fill="#0f172a" opacity="0.18" filter="url(#shadow)" transform="translate(16 14)"/>
  <path d="M72 162c-23 0-41-18-41-40 0-21 16-38 36-40 9-24 32-41 59-41 29 0 54 20 61 47 22 3 39 21 39 43 0 24-20 43-45 43H72z" fill="url(#cloud)"/>
  <path d="M112 100c0-11 12-18 22-12l44 27c10 6 10 20 0 26l-44 27c-10 6-22-1-22-12v-56z" fill="url(#play)"/>
  <path d="M94 190h88" stroke="#e0f2fe" stroke-width="12" stroke-linecap="round" opacity="0.85"/>
  <path d="M82 210h112" stroke="#bae6fd" stroke-width="10" stroke-linecap="round" opacity="0.7"/>
</svg>
